<svg xmlns="http://www.w3.org/2000/svg" viewBox="0 0 183.74 45.49"><defs><style>.cls-1{fill:#db3755;}</style></defs><title>Basalam</title><g id="Layer_2" data-name="Layer 2"><g id="Layer_1-2" data-name="Layer 1"><path class="cls-1" d="M162.63,45.49a10.57,10.57,0,0,1-5.26-1.4L146.79,38a10.53,10.53,0,0,1-5.27-9.14V16.64A10.54,10.54,0,0,1,146.8,7.5l10.56-6.1a10.61,10.61,0,0,1,10.53,0L178.47,7.5a10.5,10.5,0,0,1,5.27,9.14V28.85A10.55,10.55,0,0,1,178.46,38l-10.56,6.1A10.64,10.64,0,0,1,162.63,45.49Zm0-39.33a4.35,4.35,0,0,0-2.19.58l-10.57,6.1a4.37,4.37,0,0,0-2.18,3.8V28.85a4.39,4.39,0,0,0,2.2,3.81l10.55,6.09a4.44,4.44,0,0,0,4.39,0l10.56-6.09a4.39,4.39,0,0,0,2.19-3.8V16.64a4.39,4.39,0,0,0-2.21-3.81L164.82,6.74A4.35,4.35,0,0,0,162.63,6.16Z"/><path d="M104.13,22.34v5.8a5.4,5.4,0,0,1-2.53.49c-2,0-3-1.26-3-4.16V22.31a.87.87,0,0,0-1.23-.77L93.9,23.17v1.3a11.52,11.52,0,0,1-.25,3A8.31,8.31,0,0,1,89,28.63c-3.18,0-4.66-1.91-4.66-6.19V19.26a.81.81,0,0,0-1.2-.74l-3.17,1.6c-2.74,6.11-10.76,8.54-21.73,8.54-10.57,0-15.37-3.61-15.37-14V4a.86.86,0,0,0-1.24-.77L38.12,4.93V18.8c0,7.21-3.64,9.71-13.1,9.86a.87.87,0,0,0-.83,1L25,33.74c8.32,0,13.13-2.18,15.26-8.1,1.91,4.9,7,8.1,16.85,8.1,10.45,0,19.42-2.68,23-7.91.34,4.65,2.69,7.91,7.74,7.91,3.33,0,5.92-1,7.49-3.23.71,2,2.59,3.23,5.48,3.23,5.06,0,8-3.72,8-8.75V20.8c0-3.7-.27-6.44-.86-7.83a1.1,1.1,0,0,0-1.66-.37l-3.42,2.07c.77,1.48,1.23,4.13,1.23,7.67M20.8,19.88V19.2c0-7.7-1.72-11.59-7.55-11.59s-9.43,4.66-9.43,11.9v1.72A.83.83,0,0,0,5.05,22l3.49-1.72V17.72c0-2.87.09-4,.49-4.93A6.36,6.36,0,0,1,12.17,12c2.93,0,4,2,4,8.35v3.3a41.23,41.23,0,0,0-8.75.55C2.25,25.27,0,30.05,0,36.24v5.3a.84.84,0,0,0,1.2.77l3.48-1.72V35.16a31.08,31.08,0,0,1,.4-5.85c1-.37,4.84-.59,9-.68,3.61-.06,6.75-3.51,6.75-8.75m10.08,4.31V4a.85.85,0,0,0-1.2-.78L26.19,4.9V25.15a.85.85,0,0,0,1.21.77ZM131,20.8c0-3.7-.28-6.44-.86-7.83a1.11,1.11,0,0,0-1.66-.37l-3.43,2.07c.84,1.51,1.27,4.16,1.27,7.7V28a8.39,8.39,0,0,1-3.64.71c-2.68,0-3.76-1.14-3.76-4.47V11.56c0-3.7-.28-6.44-.86-7.83a1.09,1.09,0,0,0-1.66-.37l-3.43,2c.81,1.51,1.27,4.16,1.27,7.71V25c0,5.64,2.28,8.72,7.89,8.72,5.45,0,8.9-3.39,8.9-8.75V20.8Zm-6.53,16.37h-3.73a.84.84,0,0,0-.83.86v4.41h4.56a.84.84,0,0,0,.83-.87V38a.84.84,0,0,0-.83-.86"/></g></g></svg>