<?xml version="1.0" standalone="no"?>
<!DOCTYPE svg PUBLIC "-//W3C//DTD SVG 20010904//EN"
 "http://www.w3.org/TR/2001/REC-SVG-20010904/DTD/svg10.dtd">
<svg version="1.0" xmlns="http://www.w3.org/2000/svg"
 width="544.000000pt" height="242.000000pt" viewBox="0 0 544.000000 242.000000"
 preserveAspectRatio="xMidYMid meet">

<g transform="translate(0.000000,242.000000) scale(0.100000,-0.100000)"
 stroke="none">
<path d="M1202 2410 c-169 -24 -339 -82 -544 -186 -233 -119 -390 -239 -494
-378 -61 -80 -98 -156 -130 -263 -23 -76 -27 -106 -27 -218 0 -190 35 -328
138 -543 69 -143 137 -256 233 -386 120 -162 291 -355 360 -408 l36 -28 2303
0 c2332 0 2333 0 2355 34 4 6 8 396 8 867 0 803 -1 857 -17 872 -48 42 -731
216 -1183 301 -435 82 -702 113 -831 96 -81 -10 -114 -23 -211 -82 -38 -24
-75 -37 -111 -41 -146 -18 -485 62 -1056 247 -305 99 -392 117 -601 121 -91 2
-193 0 -228 -5z"/>
</g>
</svg>
